<?xml version="1.0" encoding="utf-8"?>
<!-- Designed by Vexels.com - 2016 All Rights Reserved - https://vexels.com/terms-and-conditions/  -->

<svg version="1.1" id="Layer_1" xmlns="http://www.w3.org/2000/svg" xmlns:xlink="http://www.w3.org/1999/xlink" x="0px" y="0px"
	 width="120px" height="30px" viewBox="0 0 120 30" enable-background="new 0 0 120 30" xml:space="preserve">
<path fill="#786B61" d="M1119.819,545.465c-29.302-3.892-36.559,17.57-38.356,28.692c-5.844-26.502-28.797-49.245-67.286-46.262
	c-62.252,4.824-42.547,59.108-42.547,59.108s6.709,19.544,24.861,26.53c-87.256-7.407-128.634,1.087-156.749,8.4
	c-3.105-1.902-6.487-3.931-10.135-6.06c0.588-0.366,1.175-0.732,1.763-1.109l0.044,0.039c2.073-1.131,4.591-2.855,7.08-4.757
	c0.111-0.072,0.216-0.144,0.316-0.216l0.066-0.089c3.515-2.722,6.908-5.788,8.799-8.178c14.964-18.912,0.771-34.63,0.771-34.63
	c-29.84-31.259-45.403,8.361-45.403,8.361l0.106,0.034c-0.155,0.311-0.311,0.626-0.433,0.965
	c-2.534,6.404,0.643,13.733,6.958,16.472c6.215,2.7,13.34,0.011,16.073-6.094c2.794-6.254,0-13.822-6.415-16.827
	c-2.833-1.325-5.86-1.525-8.588-0.777c4.247-4.269,9.242-6.481,9.242-6.481c6.415-2.062,11.76-2.14,20.048,3.937
	c14.992,10.972,12.381,30.377-11.493,45.807l0.116,0.1c-0.798,0.493-1.614,0.998-2.44,1.491
	c-39.231-22.438-105.004-53.114-165.071-48.546l0.011,0.049c-1.342,0.1-2.662,0.222-3.953,0.377
	c-21.14,2.501-49.622,16.567-57.206,41.372c-7.584-24.805-36.071-38.871-57.206-41.372c-1.292-0.155-2.617-0.277-3.959-0.377
	l0.006-0.049c-60.057-4.569-125.828,26.108-165.065,48.546c-0.821-0.493-1.641-0.998-2.44-1.491l0.111-0.1
	c-23.863-15.43-26.48-34.835-11.488-45.807c8.294-6.077,13.633-5.999,20.048-3.937c0,0,4.99,2.212,9.242,6.481
	c-2.727-0.748-5.75-0.548-8.588,0.777c-6.409,3.005-9.214,10.573-6.42,16.827c2.739,6.104,9.869,8.794,16.078,6.094
	c6.315-2.739,9.492-10.069,6.964-16.472c-0.128-0.338-0.288-0.654-0.438-0.965l0.106-0.034c0,0-15.557-39.62-45.397-8.361
	c0,0-14.193,15.718,0.765,34.63c1.891,2.39,5.283,5.456,8.793,8.178l0.066,0.089c0.111,0.072,0.222,0.144,0.321,0.216
	c2.484,1.902,5.007,3.626,7.08,4.757l0.05-0.039c0.588,0.377,1.181,0.743,1.763,1.109c-3.648,2.129-7.036,4.158-10.141,6.06
	c-28.115-7.313-69.487-15.807-156.749-8.4c18.147-6.986,24.856-26.53,24.856-26.53s19.705-54.284-42.536-59.108
	c-38.489-2.983-61.448,19.754-67.292,46.257c-1.801-11.128-9.065-32.579-38.35-28.687c-22.854,2.517-29.762,21.601-30.172,41.361
	c-0.349,16.195,9.813,32.578,24.639,40.085c11.909,6.027,24.772,9.209,49.987,2.889c0.665-0.089,1.331-0.194,2.008-0.338
	c1.741-0.371,3.731-0.771,5.827-1.187c0.3,0.322,0.571,0.665,0.882,0.987c36.249,37.463,137.665,69.204,214.693,11.205
	c0,0,5.262-4.053,14.554-10.224c9.459,2.229,18.939,4.779,28.398,7.74c0,0,34.097,9.104,58.548,8.577
	c19.05-0.405,37.014-3.526,54.844-20.259c1.896-1.275,3.682-2.628,5.378-4.053c-0.942,3.11-1.586,6.692-1.786,10.85
	c-1.242,26.823,37.075,42.619,57.317,36.714c15.037-4.386,29.607-15.929,34.702-34.547c5.09,18.618,19.666,30.161,34.702,34.547
	c20.237,5.905,58.559-9.891,57.306-36.714c-0.188-4.158-0.837-7.74-1.786-10.85c1.702,1.425,3.488,2.778,5.384,4.053
	c17.825,16.733,35.794,19.854,54.839,20.259c24.462,0.527,58.559-8.577,58.559-8.577c9.458-2.961,18.934-5.511,28.398-7.74
	c9.292,6.171,14.548,10.224,14.548,10.224c77.032,57.999,178.449,26.258,214.698-11.205c0.299-0.322,0.576-0.665,0.876-0.987
	c2.095,0.416,4.08,0.815,5.832,1.187c0.677,0.144,1.342,0.249,2.007,0.338c25.21,6.321,38.079,3.138,49.988-2.889
	c14.825-7.507,24.983-23.89,24.639-40.085C1149.57,567.065,1142.667,547.982,1119.819,545.465z M1038.03,573.968
	c-8.688-10.096-28.892-9.586-35.816,4.807c-2.512,5.223-3.626,16.849,6.576,26.341c-8.295,3.62-23.176-4.984-29.563-22.704
	c0,0-13.672-40.496,33.272-46.467c49.217-6.266,58.26,37.485,58.26,37.485c5.872,17.598,2.406,34.386-8.887,47.604
	c-16.151-2.268-31.137-4.097-45.081-5.566C1051.053,610.344,1047.366,584.846,1038.03,573.968z M129.243,573.43
	c0,0,9.037-43.751,58.254-37.485c46.938,5.971,33.272,46.467,33.272,46.467c-6.393,17.72-21.274,26.325-29.563,22.704
	c10.196-9.492,9.087-21.118,6.581-26.341c-6.925-14.393-27.134-14.903-35.816-4.807c-9.348,10.878-13.023,36.376,21.235,41.499
	c-13.944,1.469-28.93,3.299-45.086,5.566C126.831,607.816,123.371,591.028,129.243,573.43z M119.346,623.789
	c-18.818,2.384-31.819-0.737-42.159-6.199c-10.944-5.783-19.039-17.099-19.255-30.505c0,0-0.083-34.458,24.068-34.985
	c30.915-3.742,32.467,26.806,32.467,26.806c0.316,12.608-6.564,18.862-11.665,18.13c3.792-7.329,1.098-14.127-1.225-16.921
	c-6.581-7.884-18.429-5.233-21.562,2.578c-3.404,8.511,1.286,25.709,20.469,21.861c9.814-1.203,14.482-7.113,16.689-12.763
	c0.688,10.878,4.18,21.595,10.612,30.732C125.007,622.93,122.196,623.357,119.346,623.789z M338.48,636.225
	c0,0-32.723,22.948-73.851,26.835c-45.863,4.341-98.178-15.452-121.404-36.776c41.538-7.224,122.945-16.228,207.884,1.408
	C343.048,632.893,338.48,636.225,338.48,636.225z M371.02,624.798c2.212-1.397,4.552-2.839,7.025-4.336
	c9.52,5.417,18.601,9.575,27.245,12.724C394.677,631.102,384.83,628.48,371.02,624.798z M587.309,647.852
	c-15.203,18.923-41.572,22.992-62.856,6.138c-21.29-16.866-5.322-48.951,14.87-46.772c2.889,0.31,5.467,0.915,7.773,1.719
	c-0.072,0.022-0.111,0.033-0.172,0.055c11.089,3.87,12.353,12.148,11.976,17.498c-1.553-2.057-3.765-3.67-6.476-4.43
	c-6.454-1.824-13.152,1.78-14.975,8.045c-1.813,6.26,1.946,12.813,8.394,14.637c6.448,1.818,13.151-1.785,14.964-8.045
	c0.338-1.164,0.488-2.34,0.455-3.493c0.848-2.728,0.998-5.35,0.665-7.818c-0.493-8.1-4.763-22.665-29.019-23.048
	c0,0-13.09,0.726-20.326,13.301c-1.225,1.17-2.517,2.334-3.865,3.493c-6.614,5.156-14.132,8.738-19.821,10.529
	c-43.296,14.97-80.836,3.116-107.361-11.283c32.252-19.089,84.008-44.255,138.348-48.43c13.767-0.776,20.52-0.399,35.257,4.292
	C607.002,590.762,598.542,633.841,587.309,647.852z M675.541,653.989c-21.279,16.855-47.659,12.785-62.85-6.138
	c-11.244-14.011-19.694-57.09,32.168-73.612c14.737-4.691,21.479-5.068,35.245-4.292c54.351,4.175,106.102,29.341,138.348,48.43
	c-26.524,14.399-64.059,26.252-107.349,11.283c-5.7-1.796-13.229-5.384-19.854-10.556c-1.336-1.148-2.612-2.301-3.831-3.46
	c-7.23-12.58-20.326-13.306-20.326-13.306c-24.251,0.383-28.525,14.942-29.03,23.037c-0.333,2.467-0.183,5.095,0.671,7.834
	c-0.028,1.148,0.116,2.323,0.449,3.487c1.818,6.26,8.522,9.863,14.97,8.045c6.453-1.824,10.207-8.378,8.394-14.637
	c-1.818-6.265-8.527-9.869-14.975-8.045c-2.7,0.76-4.929,2.373-6.481,4.43c-0.366-5.35,0.898-13.628,11.987-17.498
	c-0.067-0.022-0.111-0.033-0.178-0.055c2.307-0.804,4.879-1.408,7.773-1.719C680.864,605.038,696.832,637.123,675.541,653.989z
	 M794.711,633.187c8.638-3.149,17.72-7.307,27.239-12.724c2.478,1.497,4.818,2.938,7.025,4.336
	C815.169,628.48,805.323,631.102,794.711,633.187z M935.37,663.06c-41.139-3.887-73.85-26.835-73.85-26.835
	s-4.569-3.332-12.635-8.533c84.939-17.637,166.346-8.633,207.884-1.408C1033.549,647.608,981.222,667.401,935.37,663.06z
	 M1122.808,617.591c-10.334,5.461-23.342,8.583-42.159,6.199c-2.844-0.432-5.661-0.859-8.444-1.264
	c6.443-9.137,9.93-19.86,10.617-30.732c2.213,5.649,6.87,11.554,16.689,12.763c19.178,3.848,23.868-13.35,20.464-21.861
	c-3.127-7.812-14.98-10.462-21.556-2.578c-2.318,2.794-5.012,9.592-1.225,16.921c-5.095,0.732-11.987-5.522-11.66-18.13
	c0,0,1.553-30.549,32.468-26.806c24.145,0.526,24.063,34.985,24.063,34.985C1141.852,600.492,1133.758,611.808,1122.808,617.591z"/>
</svg>
