<?xml version="1.0" standalone="no"?>
<svg version="1.1" id="downloadSvg" xmlns="http://www.w3.org/2000/svg" xmlns:xlink="http://www.w3.org/1999/xlink" x="0px" y="0px" viewBox="0 0 1200 1200" enable-background="new 0 0 1200 1200" xml:space="preserve" height="512" width="512">
<path d="M1137.644,602.848c-6.814,0-12.354,5.526-12.354,12.341c0,2.369,0.7,4.558,1.87,6.443&#10;&#9;c-20.666,20.694-47.493,30.879-77.897,27.654c-22.807-2.428-44.396-9.574-65.506-18.054c8.017,2.088,16.106,3.956,24.219,5.551&#10;&#9;c17.008,3.37,36.984,8.361,54.251,3.505c16.375-4.592,29.608-20.66,24.524-38.51c-4.407-15.448-17.101-26.211-32.59-29.827&#10;&#9;c-12.028-2.81-29.678,2.283-37.08,12.554c-7.89,10.983-2.466,24.666,9.714,30.099c8.522,3.794,30.264,5.967,30.93-8.811&#10;&#9;c0.41-9.421-7.119-14.599-15.289-14.642c-1.299-2.963-4.244-5.042-7.692-5.042c-4.628,0-8.382,3.744-8.382,8.369&#10;&#9;c0,4.617,3.754,8.369,8.382,8.369c4.631,0,8.382-3.752,8.382-8.369c0-0.314-0.059-0.611-0.093-0.917&#10;&#9;c13.173-1.808,11.875,17.426,1.472,20.609c-10.394,3.183-25.483-3.404-26.665-15.372c-1.027-10.262,7.319-18.088,16.271-21.627&#10;&#9;c14.789-5.848,31.527-2.954,41.345,10.559c6.548,9.005,10.041,20.948,5.144,31.643c-11.841,25.906-42.315,20.931-65.426,16.56&#10;&#9;c-16.925-3.192-33.746-7.164-50.111-12.528c-5.224-2.258-10.451-4.533-15.652-6.773c-28.159-12.147-59.37-23.104-90.593-19.896&#10;&#9;c-23.578,2.436-40.269,15.796-57.09,30.175c1.776-4.796,2.608-10.211,2.198-16.357c-1.006-15.304-13.362-30.353-27.902-35.013&#10;&#9;c-12.789-4.091-32.776-4.609-39.172,10.381c-5.237,12.274,0.153,27.34,14.122,30.294c10.905,2.3,25.564-4.541,21.765-16.119&#10;&#9;c1.203-1.485,1.963-3.345,1.963-5.415c0-4.728-3.845-8.573-8.592-8.573c-4.745,0-8.603,3.845-8.603,8.573&#10;&#9;c0,4.745,3.858,8.59,8.603,8.59c0.936,0,1.835-0.186,2.678-0.467c0.116,2.47-0.69,4.898-2.992,6.893&#10;&#9;c-5.18,4.507-13.174,9.404-20.549,1.451c-5.214-5.644-7.845-14.115-4.701-21.517c10.521-24.649,45.004-14.498,54.565,6.12&#10;&#9;c14.436,31.185-14.657,56.836-44.617,59.408c-50.487,4.32-97.595-36.193-147.882-25.753c24.829-14.26,60.808-2.063,86.221-16.178&#10;&#9;c26.827-14.914,26.943-54.833-1.708-63.711c-0.08-5.127-4.242-9.269-9.409-9.269c-5.19,0-9.409,4.21-9.409,9.396&#10;&#9;c0,5.195,4.219,9.396,9.409,9.396c4.115,0,7.576-2.648,8.862-6.307c20.28,6.816,23.575,34.029,8.755,49.961&#10;&#9;c-10.158,10.907-25.12,13.479-39.372,14.616c-10.858,0.849-22.922,0.849-34.412,2.581c18.457-6.672,38.19-12.036,36.424-35.735&#10;&#9;c-2.046-27.289-44.49-27.679-38.68-4.091c-2.069,1.231-3.484,3.463-3.484,6.043c0,3.896,3.168,7.045,7.062,7.045&#10;&#9;c3.904,0,7.06-3.149,7.06-7.045c0-3.565-2.676-6.485-6.113-6.952c-2.525-15.329,21.169-18.835,27.225-4.567&#10;&#9;c2.196,5.195,2.899,10.933,1.307,16.45c-3.669,12.689-12.74,18.996-24.804,23.147c-9.258,3.2-19.52,5.916-27.539,11.238&#10;&#9;c-8.032-5.322-18.294-8.038-27.542-11.238c-12.075-4.151-21.133-10.457-24.804-23.147c-1.602-5.517-0.9-11.255,1.299-16.45&#10;&#9;c6.054-14.268,29.761-10.763,27.223,4.567c-3.435,0.467-6.113,3.387-6.113,6.952c0,3.896,3.168,7.045,7.06,7.045&#10;&#9;c3.894,0,7.062-3.149,7.062-7.045c0-2.58-1.415-4.813-3.484-6.043c5.81-23.588-36.634-23.198-38.667,4.091&#10;&#9;c-1.778,23.698,17.954,29.063,36.422,35.735c-11.488-1.732-23.565-1.732-34.423-2.581c-14.251-1.137-29.211-3.709-39.371-14.616&#10;&#9;c-14.82-15.932-11.525-43.144,8.755-49.961c1.286,3.658,4.747,6.307,8.862,6.307c5.19,0,9.409-4.202,9.409-9.396&#10;&#9;c0-5.186-4.219-9.396-9.409-9.396c-5.155,0-9.328,4.142-9.409,9.269c-28.651,8.879-28.535,48.798-1.708,63.711&#10;&#9;c25.424,14.115,61.391,1.918,86.221,16.178c-50.287-10.44-97.396,30.073-147.882,25.753c-29.958-2.572-59.053-28.222-44.607-59.408&#10;&#9;c9.551-20.618,44.046-30.769,54.555-6.12c3.155,7.401,0.526,15.872-4.698,21.517c-7.376,7.953-15.361,3.056-20.552-1.451&#10;&#9;c-2.302-1.995-3.096-4.422-2.992-6.893c0.853,0.28,1.742,0.467,2.678,0.467c4.745,0,8.603-3.845,8.603-8.59&#10;&#9;c0-4.728-3.858-8.573-8.603-8.573c-4.747,0-8.592,3.845-8.592,8.573c0,2.071,0.76,3.93,1.963,5.415&#10;&#9;c-3.786,11.577,10.86,18.419,21.768,16.119c13.967-2.954,19.357-18.02,14.12-30.294c-6.383-14.99-26.383-14.472-39.16-10.381&#10;&#9;c-14.553,4.66-26.909,19.709-27.913,35.013c-0.399,6.146,0.42,11.561,2.196,16.357c-16.808-14.379-33.513-27.739-57.09-30.175&#10;&#9;c-31.21-3.208-62.434,7.75-90.582,19.896c-5.212,2.241-10.438,4.515-15.662,6.773c-16.365,5.364-33.186,9.337-50.111,12.528&#10;&#9;c-23.1,4.371-53.585,9.345-65.426-16.56c-4.898-10.695-1.403-22.638,5.144-31.643c9.819-13.513,26.557-16.407,41.345-10.559&#10;&#9;c8.952,3.539,17.298,11.365,16.282,21.627c-1.193,11.969-16.282,18.555-26.676,15.372c-10.402-3.183-11.688-22.417,1.472-20.609&#10;&#9;c-0.034,0.306-0.093,0.602-0.093,0.917c0,4.617,3.754,8.369,8.382,8.369c4.63,0,8.382-3.752,8.382-8.369&#10;&#9;c0-4.626-3.752-8.369-8.382-8.369c-3.448,0-6.394,2.079-7.69,5.042c-8.172,0.042-15.701,5.22-15.278,14.642&#10;&#9;c0.654,14.778,22.396,12.605,30.918,8.811c12.18-5.432,17.617-19.115,9.714-30.099c-7.399-10.271-25.05-15.363-37.08-12.554&#10;&#9;c-15.489,3.616-28.183,14.379-32.59,29.827c-5.085,17.85,8.148,33.918,24.524,38.51c17.267,4.855,37.244-0.136,54.251-3.505&#10;&#9;c8.112-1.596,16.202-3.463,24.231-5.551c-21.122,8.48-42.712,15.626-65.519,18.054c-30.404,3.226-57.23-6.96-77.897-27.654&#10;&#9;c1.169-1.884,1.87-4.074,1.87-6.443c0-6.816-5.541-12.341-12.354-12.341c-6.826,0-12.356,5.526-12.356,12.341&#10;&#9;c0,6.807,5.53,12.333,12.356,12.333c2.769,0,5.295-0.942,7.351-2.478c14.625,14.438,32.252,24.047,53.318,27.34&#10;&#9;c30.425,4.737,61.776-5.296,89.807-16.059c34.182-13.122,65.962-30.777,102.82-35.497c20.923-2.674,40.142,0.093,57.886,11.739&#10;&#9;c4.161,2.733,8.112,5.78,11.958,8.955c-38.68-12.078-88.617,13.572-125.228,26.448c-1.309-2.92-4.232-4.966-7.644-4.966&#10;&#9;c-4.631,0-8.382,3.743-8.382,8.369c0,4.634,3.751,8.378,8.382,8.378c4.639,0,8.38-3.743,8.38-8.378c0-0.645-0.081-1.265-0.223-1.876&#10;&#9;c39.992-14.141,94.743-43.501,133.307-20.431c-18.4-4.303-37.651,1.723-54.062,11.272c-1.801-2.215-4.524-3.667-7.61-3.667&#10;&#9;c-5.424,0-9.82,4.388-9.82,9.803c0,5.424,4.397,9.804,9.82,9.804c5.424,0,9.819-4.38,9.819-9.804c0-1.604-0.422-3.098-1.112-4.439&#10;&#9;c17.43-10.636,38.19-16.942,57.806-8.234c0.21,0.102,0.501,0.11,0.806,0.085c2.453,2.164,4.921,4.303,7.423,6.4&#10;&#9;c16.013,15.389,45.88,18.895,66.803,15.643c41.054-6.375,83.03-35.352,125.344-23.223c0.166,0.051,0.41,0.034,0.679,0.008l0,0&#10;&#9;c0.01,0.009,0.01,0,0.023,0c0,0,0.01,0.009,0.023,0l0,0c0.257,0.026,0.503,0.043,0.667-0.008&#10;&#9;c42.315-12.129,84.29,16.848,125.355,23.223c20.912,3.251,50.779-0.255,66.792-15.643c2.515-2.096,4.97-4.235,7.423-6.4&#10;&#9;c0.316,0.025,0.598,0.017,0.809-0.085c19.613-8.709,40.363-2.402,57.803,8.234c-0.689,1.341-1.109,2.835-1.109,4.439&#10;&#9;c0,5.424,4.395,9.804,9.818,9.804c5.424,0,9.819-4.38,9.819-9.804c0-5.415-4.395-9.803-9.819-9.803&#10;&#9;c-3.087,0-5.799,1.451-7.611,3.667c-16.412-9.549-35.652-15.575-54.063-11.272c38.563-23.07,93.315,6.29,133.307,20.431&#10;&#9;c-0.14,0.611-0.223,1.231-0.223,1.876c0,4.634,3.752,8.378,8.38,8.378c4.63,0,8.395-3.743,8.395-8.378&#10;&#9;c0-4.626-3.765-8.369-8.395-8.369c-3.412,0-6.334,2.046-7.643,4.966c-36.611-12.876-86.535-38.527-125.228-26.448&#10;&#9;c3.845-3.175,7.796-6.222,11.959-8.955c17.755-11.646,36.972-14.413,57.897-11.739c36.832,4.72,68.639,22.375,102.807,35.497&#10;&#9;c28.032,10.763,59.382,20.796,89.81,16.059c21.052-3.293,38.703-12.902,53.315-27.34c2.056,1.536,4.581,2.478,7.351,2.478&#10;&#9;c6.829,0,12.356-5.526,12.356-12.333C1150,608.374,1144.473,602.848,1137.644,602.848z" style="fill: rgb(195, 153, 0);"/>
</svg>