<svg height="100" viewBox="0 0 512 512" width="100" xmlns="http://www.w3.org/2000/svg"><path d="m51.199219 512h221.867187c28.265625-.027344 51.171875-22.933594 51.199219-51.199219v-213.335937c0-4.710938-3.820313-8.53125-8.53125-8.53125-4.714844 0-8.535156 3.820312-8.535156 8.53125v78.140625c-8-7.03125-18.003907-11.378907-28.601563-12.433594l-35.210937-3.496094c-17.523438-1.34375-31.539063-15.101562-33.210938-32.597656v-15.105469c6.945313-9.320312 11.976563-19.921875 14.804688-31.195312 9.4375-3.414063 13.652343-13.074219 18.066406-23.179688l.402344-.921875c4.738281-10.09375 5.292969-21.652343 1.535156-32.152343-2.574219-6.808594-7.8125-12.277344-14.507813-15.136719-1.050781-.445313-2.125-.835938-3.21875-1.171875-2.234374-31.023438-27.753906-55.222656-58.851562-55.816406h-21.078125c-31.097656.613281-56.597656 24.828124-58.820313 55.851562-1.101562.324219-2.285156.777344-3.644531 1.316406-6.523437 2.894532-11.609375 8.289063-14.113281 14.972656-3.757812 10.5-3.203125 22.054688 1.535156 32.148438l.402344.929688c4.410156 10.101562 8.625 19.738281 18.066406 23.175781 2.789063 11.128906 7.730469 21.601562 14.546875 30.832031v15.453125c-.246093 17.078125-13.421875 31.175781-30.445312 32.570313l-29.183594 3.480468c-10.605469 1.070313-20.609375 5.433594-28.605469 12.476563v-240.273438h221.867188c4.710937 0 8.53125-3.820312 8.53125-8.53125 0-4.714843-3.820313-8.535156-8.53125-8.535156h-221.867188v-17.066406c0-18.851563 15.28125-34.132813 34.132813-34.132813h102.402343v17.066406c0 4.714844 3.820313 8.535157 8.53125 8.535157 4.714844 0 8.535157-3.820313 8.535157-8.535157v-17.066406h102.398437c4.714844 0 8.535156-3.820312 8.535156-8.53125 0-4.714844-3.820312-8.535156-8.535156-8.535156h-221.867187c-28.265625.0273438-51.1718752 22.933594-51.199219 51.199219v409.601562c.0273438 28.265625 22.933594 51.171875 51.199219 51.199219zm221.867187-17.066406h-221.867187c-18.851563 0-34.132813-15.28125-34.132813-34.132813v-17.066406h290.132813v17.066406c0 18.851563-15.28125 34.132813-34.132813 34.132813zm-256-86.5625c2.371094.78125 4.84375 1.195312 7.339844 1.230468h275.457031c2.492188-.035156 4.96875-.449218 7.335938-1.230468v18.296875h-290.132813zm81.273438-193.332032c-3.234375-.144531-4.832032-2.40625-10.011719-14.265624l-.410156-.941407c-2.871094-5.925781-3.34375-12.734375-1.3125-19.003906.855469-2.425781 2.628906-4.417969 4.941406-5.554687.449219.238281.964844.511718 1.558594.8125 2.652343 1.316406 5.796875 1.167968 8.308593-.398438 2.515626-1.566406 4.035157-4.320312 4.023438-7.28125v-6.273438c.097656-23.222656 18.671875-42.144531 41.890625-42.667968h21.078125c23.214844.523437 41.792969 19.445312 41.890625 42.667968v6.316407c-.015625 2.960937 1.507813 5.714843 4.019531 7.28125 2.515625 1.5625 5.660156 1.714843 8.308594.398437.5625-.28125 1.050781-.539062 1.570312-.855468 2.316407 1.128906 4.089844 3.125 4.933594 5.554687 2.035156 6.269531 1.574219 13.085937-1.289062 19.023437l-.410156.929688c-5.179688 11.859375-6.773438 14.121094-10.007813 14.265625-4.011719.179687-7.355469 3.132813-8.03125 7.09375-4.292969 25.035156-24.722656 50.925781-51.523437 50.925781-26.804688 0-47.234376-25.890625-51.5-50.925781-.671876-3.964844-4.015626-6.921875-8.027344-7.101563zm23.890625 63.402344c21.089843 15.496094 49.777343 15.585938 70.964843.222656 1.75 20.605469 15.554688 38.210938 35.148438 44.824219-21.425781 12.367188-45.867188 18.546875-70.597656 17.84375-24.394532.648438-48.511719-5.320312-69.792969-17.269531 19.890625-6.46875 33.597656-24.707031 34.277344-45.609375zm-74.71875 51.660156 18.367187-2.191406c18.113282 18.59375 53.273438 30.488282 91.867188 30.488282 38.988281 0 74.574218-12.011719 92.585937-30.921876l26.589844 2.644532c16.960937 1.378906 30.082031 15.445312 30.277344 32.460937v23.039063c-.125 3.933594-3.40625 7.023437-7.335938 6.914062h-275.457031c-3.933594.109375-7.214844-2.980468-7.339844-6.914062v-23.039063c.21875-17.074219 13.425782-31.160156 30.445313-32.480469zm0 0"/><path d="m187.734375 460.800781h-51.199219c-4.714844 0-8.535156 3.820313-8.535156 8.53125 0 4.714844 3.820312 8.535157 8.535156 8.535157h51.199219c4.710937 0 8.53125-3.820313 8.53125-8.535157 0-4.710937-3.820313-8.53125-8.53125-8.53125zm0 0"/><path d="m486.398438 25.601562h-196.265626c-14.136718 0-25.597656 11.460938-25.597656 25.597657v110.933593c0 14.140626 11.460938 25.601563 25.597656 25.601563v17.550781c.003907 6.390625 3.574219 12.246094 9.257813 15.167969 5.683594 2.925781 12.523437 2.429687 17.726563-1.28125l44.011718-31.4375h125.269532c14.140624 0 25.601562-11.460937 25.601562-25.601563v-110.933593c0-14.136719-11.460938-25.597657-25.601562-25.597657zm8.535156 136.53125c0 4.714844-3.820313 8.535157-8.535156 8.535157h-125.269532c-3.554687-.007813-7.023437 1.105469-9.914062 3.179687l-44.015625 31.4375v-17.550781c0-9.425781-7.640625-17.066406-17.066407-17.066406-4.710937 0-8.53125-3.820313-8.53125-8.535157v-110.933593c0-4.710938 3.820313-8.53125 8.53125-8.53125h196.265626c4.714843 0 8.535156 3.820312 8.535156 8.53125zm0 0"/><path d="m469.332031 59.734375h-162.132812c-4.710938 0-8.53125 3.820313-8.53125 8.53125 0 4.714844 3.820312 8.535156 8.53125 8.535156h162.132812c4.714844 0 8.535157-3.820312 8.535157-8.535156 0-4.710937-3.820313-8.53125-8.535157-8.53125zm0 0"/><path d="m469.332031 93.867188h-162.132812c-4.710938 0-8.53125 3.820312-8.53125 8.53125 0 4.714843 3.820312 8.535156 8.53125 8.535156h162.132812c4.714844 0 8.535157-3.820313 8.535157-8.535156 0-4.710938-3.820313-8.53125-8.535157-8.53125zm0 0"/><path d="m469.332031 128h-162.132812c-4.710938 0-8.53125 3.820312-8.53125 8.535156 0 4.710938 3.820312 8.53125 8.53125 8.53125h162.132812c4.714844 0 8.535157-3.820312 8.535157-8.53125 0-4.714844-3.820313-8.535156-8.535157-8.535156zm0 0"/></svg>