<?xml version="1.0" encoding="iso-8859-1"?>
<!-- Generator: Adobe Illustrator 22.1.0, SVG Export Plug-In . SVG Version: 6.00 Build 0)  -->
<svg xmlns="http://www.w3.org/2000/svg" xmlns:xlink="http://www.w3.org/1999/xlink" version="1.1" id="Layer_3" x="0px" y="0px" viewBox="0 0 64 64" style="enable-background:new 0 0 64 64;" xml:space="preserve" width="100" height="100">
<g>
	<path d="M62,57h-3V46c0-2.414-1.721-4.434-4-4.899V30c0-2.757-2.243-5-5-5h-4.307L43,17.819V12c0-1.654-1.346-3-3-3h-2h-2   c-1.654,0-3,1.346-3,3v5.819L30.307,25H29v-6h1c0.552,0,1-0.448,1-1v-6c0-1.654-1.346-3-3-3h-3h-3c-1.654,0-3,1.346-3,3v6   c0,0.552,0.448,1,1,1h1v6h-7c-2.757,0-5,2.243-5,5v11.101C6.721,41.566,5,43.586,5,46v11H2c-0.552,0-1,0.448-1,1v4   c0,0.552,0.448,1,1,1h60c0.552,0,1-0.448,1-1v-4C63,57.448,62.552,57,62,57z M11,32.414l0.879,0.879C12.979,34.394,14.443,35,16,35   s3.021-0.606,4.121-1.707l1.172-1.172c1.446-1.446,3.968-1.446,5.414,0l1.172,1.172C28.979,34.394,30.443,35,32,35   s3.021-0.606,4.121-1.707l1.172-1.172c1.446-1.446,3.968-1.446,5.414,0l1.172,1.172C44.979,34.394,46.443,35,48,35   s3.021-0.606,4.121-1.707L53,32.414V41H11V32.414z M34.937,18.351C34.979,18.239,35,18.12,35,18v-6c0-0.551,0.449-1,1-1h4   c0.551,0,1,0.449,1,1v6c0,0.12,0.021,0.239,0.063,0.351L43.557,25H32.443L34.937,18.351z M22,17h-1v-5c0-0.551,0.449-1,1-1h6   c0.551,0,1,0.449,1,1v5h-1c-0.552,0-1,0.448-1,1v7h-4v-7C23,17.448,22.552,17,22,17z M14,27h36c1.526,0,2.775,1.149,2.962,2.624   l-2.255,2.255c-1.446,1.446-3.968,1.446-5.414,0l-1.172-1.172C43.021,29.606,41.557,29,40,29s-3.021,0.606-4.121,1.707   l-1.172,1.172c-1.446,1.446-3.968,1.446-5.414,0l-1.172-1.172C27.021,29.606,25.557,29,24,29s-3.021,0.606-4.121,1.707   l-1.172,1.172c-1.446,1.446-3.968,1.446-5.414,0l-2.255-2.255C11.225,28.149,12.474,27,14,27z M10,43h44   c1.302,0,2.402,0.839,2.816,2H56c-1.557,0-3.021,0.606-4.121,1.707l-1.172,1.172c-1.446,1.446-3.968,1.446-5.414,0l-1.172-1.172   C43.021,45.606,41.557,45,40,45s-3.021,0.606-4.121,1.707l-1.172,1.172c-1.446,1.446-3.968,1.446-5.414,0l-1.172-1.172   C27.021,45.606,25.557,45,24,45s-3.021,0.606-4.121,1.707l-1.172,1.172c-1.446,1.446-3.968,1.446-5.414,0l-1.172-1.172   C11.021,45.606,9.557,45,8,45H7.184C7.598,43.839,8.698,43,10,43z M7,47h1c1.022,0,1.984,0.398,2.707,1.121l1.172,1.172   C12.979,50.394,14.443,51,16,51s3.021-0.606,4.121-1.707l1.172-1.172c1.446-1.446,3.968-1.446,5.414,0l1.172,1.172   C28.979,50.394,30.443,51,32,51s3.021-0.606,4.121-1.707l1.172-1.172c1.446-1.446,3.968-1.446,5.414,0l1.172,1.172   C44.979,50.394,46.443,51,48,51s3.021-0.606,4.121-1.707l1.172-1.172C54.016,47.398,54.978,47,56,47h1v10H7V47z M61,61H3v-2h3h52h3   V61z"/>
	<rect x="9" y="53" width="2" height="2"/>
	<rect x="13" y="53" width="2" height="2"/>
	<rect x="17" y="53" width="2" height="2"/>
	<rect x="21" y="53" width="2" height="2"/>
	<rect x="25" y="53" width="2" height="2"/>
	<rect x="29" y="53" width="2" height="2"/>
	<rect x="33" y="53" width="2" height="2"/>
	<rect x="37" y="53" width="2" height="2"/>
	<rect x="41" y="53" width="2" height="2"/>
	<rect x="45" y="53" width="2" height="2"/>
	<rect x="49" y="53" width="2" height="2"/>
	<rect x="13" y="37" width="2" height="2"/>
	<rect x="17" y="37" width="2" height="2"/>
	<rect x="21" y="37" width="2" height="2"/>
	<rect x="25" y="37" width="2" height="2"/>
	<rect x="29" y="37" width="2" height="2"/>
	<rect x="33" y="37" width="2" height="2"/>
	<rect x="37" y="37" width="2" height="2"/>
	<rect x="41" y="37" width="2" height="2"/>
	<rect x="45" y="37" width="2" height="2"/>
	<rect x="49" y="37" width="2" height="2"/>
	<rect x="53" y="53" width="2" height="2"/>
	<path d="M29,5c0-2.206-1.794-4-4-4s-4,1.794-4,4s1.794,4,4,4S29,7.206,29,5z M25,7c-1.103,0-2-0.897-2-2s0.897-2,2-2s2,0.897,2,2   S26.103,7,25,7z"/>
	<path d="M42,5c0-2.206-1.794-4-4-4s-4,1.794-4,4s1.794,4,4,4S42,7.206,42,5z M38,7c-1.103,0-2-0.897-2-2s0.897-2,2-2s2,0.897,2,2   S39.103,7,38,7z"/>
</g>
</svg>
